<svg version="1.1" id="Calque_1" xmlns="http://www.w3.org/2000/svg" xmlns:xlink="http://www.w3.org/1999/xlink" x="0px" y="0px"
	 viewBox="7.9 43.4 41.4 17.5" style="enable-background:new 7.9 43.4 41.4 17.5;" xml:space="preserve" fill="#0A334A">
<g>
	<path class="st0" d="M20.2,58.2c0,0.6,0.4,0.8,1.2,0.8s1.2-0.2,1.2-0.7c0-0.3-0.1-0.5-0.4-0.6c-0.3-0.2-0.6-0.3-1-0.4
		s-0.8-0.2-1.2-0.4c-0.4-0.1-0.7-0.4-1-0.7c-0.3-0.3-0.4-0.7-0.4-1.2c0-2,1.3-3,3.9-3c0.9,0,1.7,0.2,2.1,0.5
		c0.5,0.4,0.7,0.9,0.7,1.5c0,0.2,0,0.5-0.1,0.7c-0.1,0.2-0.1,0.4-0.2,0.5l0,0h-2.1c0.2-0.2,0.3-0.4,0.3-0.7c0-0.5-0.3-0.8-1-0.8
		c-0.9,0-1.3,0.3-1.3,0.8c0,0.3,0.1,0.5,0.4,0.6c0.3,0.2,0.6,0.3,1,0.4c0.4,0.1,0.8,0.2,1.2,0.3c0.4,0.1,0.7,0.4,1,0.7
		c0.3,0.3,0.4,0.7,0.4,1.2c0,1-0.3,1.8-0.9,2.3c-0.6,0.5-1.5,0.7-2.8,0.7s-2.1-0.2-2.6-0.7c-0.3-0.3-0.5-0.8-0.5-1.4
		c0-0.2,0-0.5,0.1-0.7v-0.2h2.2v0.1C20.2,58,20.2,58.1,20.2,58.2z"/>
	<path class="st0" d="M30.3,51.9c1.9,0,2.9,0.8,2.9,2.4c0,0.3,0,0.5-0.1,0.9l-0.4,2.4c-0.2,1.1-0.6,1.9-1.2,2.5
		c-0.6,0.5-1.5,0.8-2.7,0.8s-2-0.3-2.4-0.8c-0.3-0.4-0.5-0.9-0.5-1.5c0-0.3,0-0.6,0.1-0.9l0.4-2.4C26.8,53,28.1,51.9,30.3,51.9z
		 M29.1,58.9c0.4,0,0.7-0.1,1-0.3c0.3-0.2,0.4-0.6,0.5-1.2l0.4-2.3c0-0.2,0-0.3,0-0.4c0-0.6-0.3-1-1-1c-0.8,0-1.3,0.5-1.5,1.4
		l-0.4,2.3c0,0.2,0,0.4,0,0.6C28.1,58.7,28.4,58.9,29.1,58.9z"/>
	<path class="st0" d="M37.8,60.6l0.1-1.9h-2l-0.6,1.9H33l3.1-8.6h4v8.6H37.8z M37.3,54.1l-0.9,3H38l0.1-3H37.3z"/>
	<path class="st0" d="M49.1,53.9h-3l-1.2,6.8h-2.2l1.2-6.8h-3l0.3-1.9h8.1L49.1,53.9z"/>
</g>
<g>
	<path class="st0" d="M18.8,44.5L18.8,44.5v0.4c0,0.2,0,0.3-0.1,0.5c0,0.3-0.2,0.5-0.3,0.7c-0.1,0.1-0.1,0.1-0.1,0.2l0,0
		c-0.1,0.1-0.1,0.2-0.2,0.2l0,0c-0.1,0.1-0.2,0.3-0.3,0.4V47l0,0h-0.1c-0.1,0.1-0.2,0.2-0.3,0.3h-0.1l-0.1,0.1
		c-0.1,0.1-0.3,0.2-0.4,0.3l-0.2,0.2l0,0c-0.1,0-0.1,0.1-0.2,0.1l0,0c0,0-0.1,0-0.1,0.1l-0.1,0.1c-0.1,0.1-0.2,0.1-0.3,0.2l0,0l0,0
		l0,0l-0.1,0.1h0.1c0.5,0.2,0.9,0.4,1.3,0.7l0,0c0.2,0.2,0.4,0.3,0.6,0.5l0.3,0.3c0.1,0.1,0.1,0.2,0.1,0.3c0.2,0.4,0.3,0.8,0.3,1.3
		c0,0.1,0,0.2,0,0.3c0,0.2-0.1,0.5-0.1,0.6c0,0.2-0.1,0.3-0.2,0.4L18.1,53l0,0l0,0c0,0.1,0,0.2,0,0.2l0,0C18,53.3,18,53.4,18,53.5
		s-0.1,0.2-0.2,0.3c0,0-0.1,0.1-0.1,0.2s0,0.1-0.1,0.2l-0.1,0.1c0,0.1-0.1,0.2-0.2,0.3L17,54.7l-0.1,0.1l0,0l-0.1,0.1L16.7,55
		l-0.1,0.1c-0.1,0-0.1,0.1-0.2,0.1c-0.1,0.1-0.2,0.1-0.2,0.2c-0.1,0.1-0.3,0.2-0.4,0.2l-0.2,0.1c-0.3,0.2-0.6,0.3-0.9,0.4l0,0
		c-0.2,0.1-0.5,0.2-0.7,0.2c-0.1,0-0.1,0-0.2,0.1h-0.1c0,0-0.1,0-0.2,0h-0.1l0,0l0,0l0,0h-0.1h-0.1H13h-0.1h-0.2c-0.1,0-0.2,0-0.3,0
		c0,0,0,0-0.1,0h-0.1c-0.1,0-0.1,0-0.1,0l0,0l-0.2-0.1l0,0l0,0c-0.1,0-0.1,0-0.2,0s-0.1,0-0.2,0c-0.2,0-0.3-0.1-0.5-0.1
		s-0.3-0.1-0.4-0.1c-0.2-0.1-0.4-0.2-0.6-0.3H9.9c-0.2-0.1-0.3-0.2-0.4-0.3c-0.1-0.1-0.2-0.2-0.4-0.2L9,55.2l0,0l-0.1-0.1l0,0
		c-0.1,0-0.2,0-0.2-0.1c0,0,0,0,0-0.1H8.5l0.1-0.2l0,0H8.5l-0.1-0.3l0,0v-0.1c-0.1-0.2-0.2-0.4-0.3-0.6L8,53.8v-0.1
		c-0.1-0.1-0.1-0.3,0-0.4l0,0c0-0.2,0-0.4,0.1-0.6l0,0v-0.1l0.2-0.5V52c0,0,0-0.1,0.1-0.1c0.1-0.1,0.2-0.3,0.4-0.4
		c0-0.1,0.1-0.1,0.1-0.2c0,0,0,0,0.1-0.1L9.3,51l0.5-0.4c0.1-0.1,0.3-0.2,0.5-0.2h0.1l0.5-0.2l-0.3,0.4l0,0l0,0
		c0,0.1-0.1,0.2-0.2,0.3c-0.1,0-0.1,0.1-0.2,0.2c-0.1,0.1-0.1,0.1-0.2,0.2c-0.2,0.2-0.3,0.4-0.5,0.6l0,0c0,0,0,0.1-0.1,0.1
		c-0.1,0.1-0.1,0.2-0.2,0.2v0.2l0,0l0,0c0,0,0,0.1,0,0.2c-0.1,0.1-0.1,0.1-0.1,0.2c0,0.1,0,0.2-0.1,0.2c-0.1,0.2-0.1,0.3-0.1,0.5
		c0,0.1,0,0.3,0.1,0.5c0.1,0.2,0.2,0.4,0.4,0.6c0.1,0.1,0.1,0.1,0.2,0.1s0.2,0.1,0.3,0.2c0.1,0.1,0.2,0.2,0.3,0.2
		c0.1,0,0.2,0.1,0.3,0.1h0.1c0.1,0,0.1,0,0.2,0.1c0.1,0,0.2,0.1,0.3,0.1c0.1,0,0.2,0.1,0.3,0c0.1,0,0.2,0,0.2,0h0.1h0.1l0,0
		c0.1,0,0.2,0,0.3,0c0.1,0,0.4-0.1,0.5-0.1l0,0l-0.3-0.2l1,0.1c0.1,0,0.2-0.1,0.3-0.1l0.2-0.1c0,0,0,0,0.1,0s0.1-0.1,0.2-0.1
		c0.1-0.1,0.2-0.1,0.3-0.1h0.1h0.1c0.2-0.1,0.4-0.2,0.6-0.4c0.1,0,0.1-0.1,0.2-0.1l0,0v-0.1v-0.1l0.3-0.1c0.1,0,0.1,0,0.1-0.1
		c0.1-0.1,0.1-0.1,0.1-0.1l0,0l0,0l0.1-0.1l0,0l0.1-0.2l0,0l0.1-0.1c0.1-0.1,0.1-0.1,0.2-0.2c0-0.1,0.1-0.1,0.1-0.1
		c0.2-0.3,0.4-0.5,0.6-1c0.1-0.2,0.2-0.4,0.2-0.7s0.1-0.5,0-0.7s-0.2-0.3-0.2-0.5c-0.2-0.2-0.4-0.4-0.6-0.6l0,0
		c-0.2-0.1-0.4-0.3-0.6-0.4C15.6,49.1,15.3,49,15,49c-0.1,0-0.3,0-0.5,0.1c-0.3,0-0.6,0.1-0.9,0.2v0.1c0,0.2-0.1,0.3-0.1,0.5
		l-0.1,0.3v0.1l0,0c0,0.2-0.1,0.3-0.1,0.5c0,0.1-0.1,0.2-0.1,0.3c-0.1,0.1-0.1,0.2-0.1,0.3c0,0.3-0.2,0.5-0.4,0.6l0,0l-0.3,0.1
		L12.3,52v-0.1v-0.2c0-0.1,0-0.1,0-0.2c0-0.1,0-0.1,0-0.1c0-0.1,0-0.2,0-0.3V51c0-0.2,0-0.5,0-0.7s0.1-0.4,0.1-0.7v-0.1l0,0
		c0,0,0,0,0-0.1v-0.1c0.1-0.2,0.1-0.3,0.1-0.5c0-0.1,0-0.2,0.1-0.3l0.1-0.4c0-0.2,0.1-0.3,0.1-0.5c0.1-0.2,0.1-0.4,0.2-0.6
		c0-0.2,0.1-0.3,0.1-0.4v-0.1c0.1-0.3,0.2-0.6,0.3-0.9c0-0.1,0-0.2,0-0.3v-0.1l0.3-0.1l0.5,0.1l0.1,0.1l0.1,0.1
		c0.1,0.1,0.2,0.3,0.1,0.4c0,0.1,0,0.2-0.1,0.3c0,0.1,0,0.2-0.1,0.3l0,0c0,0.2,0,0.4-0.1,0.7c0,0.1,0,0.1,0,0.2v0.2
		c0,0.2-0.1,0.3-0.1,0.4v0.2c0,0.2-0.1,0.3-0.1,0.5l0.2-0.1l0.1-0.1l0.1,0.1l0,0l0,0c0-0.1,0.1-0.1,0.2-0.2l0,0l0,0h0.1h0.1l0,0l0,0
		h0.1c0,0,0,0,0.1,0c0.3-0.2,0.5-0.4,0.7-0.5h0.1c0-0.1,0.1-0.2,0.2-0.2l0,0l0.2-0.2l0.1-0.1c0.1-0.1,0.2-0.1,0.3-0.2
		c0-0.1,0.1-0.1,0.1-0.1l0.2-0.1c0.1-0.1,0.2-0.2,0.2-0.2c0.1-0.1,0.1-0.1,0.2-0.2c0.1-0.1,0.1-0.1,0.2-0.2c0.1-0.2,0.2-0.3,0.4-0.6
		c0.1-0.2,0.1-0.5,0-0.7c0-0.1-0.1-0.2-0.3-0.3c-0.3-0.2-0.6-0.2-1-0.3c-0.2,0-0.3,0-0.4,0c-0.3,0-0.5,0-0.8,0.1
		c-0.3,0.1-0.6,0.2-0.9,0.3c-0.5,0.2-0.9,0.4-1.3,0.6l0,0c-0.3,0.2-0.6,0.4-0.9,0.6l-0.2,0.2c-0.1,0.1-0.2,0.2-0.3,0.2
		c-0.2,0.2-0.4,0.3-0.5,0.5c-0.1,0.1-0.1,0.1-0.1,0.2c0,0.2-0.1,0.3-0.2,0.3c-0.1,0.1-0.3,0.1-0.4,0l-0.1-0.1l-0.1-0.1
		c-0.3-0.3-0.2-0.4-0.1-0.7v-0.1c0-0.1,0.1-0.2,0.2-0.3c0.3-0.4,0.6-0.7,1-1c0.2-0.2,0.5-0.4,0.8-0.6c0.5-0.3,1-0.5,1.4-0.7
		c0.4-0.1,0.7-0.2,1-0.3c0.3-0.1,0.6-0.1,0.9-0.1c0.4,0,0.9,0,1.4,0.1c0.4,0.1,0.7,0.2,1,0.4c0.2,0.1,0.4,0.3,0.6,0.5
		C18.6,44.5,18.6,44.5,18.8,44.5v0.2c0.1,0.1,0.1,0.2,0.1,0.3C18.8,44.3,18.8,44.4,18.8,44.5L18.8,44.5z M12.1,55.5l0.1,0.1
		L12.1,55.5L12.1,55.5z"/>
	<path class="st0" d="M22.9,49.1c-0.3,0.2-0.4,0.5-0.7,0.8C22.1,50,22.1,50,22,50.1c-0.2,0.2-0.3,0.4-0.5,0.5
		c-0.1,0.1-0.4,0.2-0.5,0.2c-0.3,0.1-0.6,0.1-0.9,0.1c-0.1,0-0.1,0-0.2,0c-0.3-0.1-0.6-0.3-0.8-0.6c-0.2-0.3-0.3-0.6-0.3-1
		c0-0.5,0.1-0.9,0.3-1.4c0.1-0.2,0.2-0.4,0.3-0.6c0.2-0.4,0.4-0.8,0.7-1.2l0.4-0.5c0.1-0.2,0.4-0.4,0.6-0.5c0.1,0,0.2,0,0.3,0.1h0.1
		c0.3,0,0.5,0.1,0.7,0.2s0.3,0.3,0.3,0.5c0,0.4,0,0.7-0.2,1.1c-0.1,0.1-0.2,0.3-0.3,0.4s-0.2,0.2-0.3,0.3l-0.1,0.1
		c-0.2,0.1-0.3,0.2-0.4,0.3c-0.1,0-0.1,0.1-0.1,0.1c-0.1,0-0.2,0-0.3,0.1h-0.1c-0.1,0.1-0.2,0.3-0.2,0.4c-0.1,0.2-0.2,0.5-0.2,0.8
		v0.1c0,0.1,0,0.2-0.1,0.3c0,0.1,0,0.2,0.1,0.3c0.1,0.1,0.2,0.1,0.4,0.1c0.1-0.1,0.2-0.1,0.4-0.2c0.3-0.2,0.6-0.4,0.8-0.7
		c0.2-0.2,0.4-0.5,0.6-0.7c0.2-0.3,0.5-0.6,0.6-1c0.2-0.3,0.3-0.6,0.5-0.9c0.1-0.1,0.1-0.2,0.2-0.3c0.1-0.1,0.2,0,0.3,0.1
		c0.1,0.2,0,0.3-0.1,0.5c-0.1,0.3-0.3,0.5-0.4,0.8c-0.1,0.2-0.3,0.5-0.4,0.7L23,48.9C23,49,22.9,49.1,22.9,49.1z M21.4,47.3
		c0.2-0.2,0.3-0.5,0.4-0.7c0-0.1,0-0.2,0-0.3c0-0.1,0-0.2,0-0.2V46c-0.2,0-0.3,0.2-0.3,0.3c0,0.1-0.1,0.2-0.1,0.2
		c-0.1,0.2-0.1,0.3-0.2,0.5l-0.1,0.3C21,47.4,21,47.6,21,47.7C21.1,47.6,21.3,47.5,21.4,47.3z"/>
	<path class="st0" d="M28,46.4c-0.1,0.3-0.2,0.5-0.4,0.7c0,0.1-0.2,0.4-0.2,0.4c-0.1,0.2-0.4,0.8-0.6,1c-0.2,0.3-0.4,0.6-0.5,0.9
		c0,0.1-0.1,0.1-0.2,0.2l-0.6,0.6l-0.1,0.1h-0.1c-0.3,0.2-0.6,0.2-0.9,0.2h-0.2c-0.1,0-0.2,0-0.3-0.1c-0.2-0.1-0.4-0.2-0.6-0.3
		c-0.2-0.2-0.3-0.4-0.3-0.7c0-0.2,0-0.4-0.1-0.7c0-0.1,0-0.2,0-0.2c0.1-0.6,0.3-1.1,0.6-1.6c0.2-0.3,0.3-0.6,0.5-0.8
		c0.1-0.2,0.3-0.3,0.5-0.5c0.2-0.2,0.3-0.3,0.5-0.5c0.1-0.1,0.1-0.1,0.3-0.1c0,0,0,0,0.1,0c0.1-0.1,0.2-0.1,0.4,0
		c0.1,0.1,0.3,0.1,0.4,0.2c0.2,0.1,0.3,0.2,0.3,0.4v0.1c0,0.1,0,0.2-0.1,0.4c0,0,0,0,0,0.1c-0.2,0-0.3,0-0.4-0.1
		c0-0.2,0-0.4-0.1-0.6c-0.2,0.1-0.4,0.7-0.5,0.6l0,0c-0.1,0.3-0.3,0.6-0.4,0.9c0,0.1-0.1,0.3-0.2,0.4c-0.1,0.1-0.1,0.3-0.2,0.4
		c0,0.1,0,0.1,0,0.1c-0.1,0.1-0.1,0.3-0.2,0.4v0.1c-0.1,0.2-0.1,0.5-0.2,0.7c0,0.1,0,0.3,0,0.4v0.3c0.1,0.2,0.3,0.2,0.5,0.1
		c0.2,0,0.4-0.2,0.6-0.3c0.2-0.1,0.3-0.2,0.4-0.3c0.2-0.2,0.4-0.4,0.5-0.7l0.1-0.1c0.3-0.5,0.7-1.3,1-1.7c0-0.1,0.2-0.4,0.2-0.4
		c0.1-0.1,0.2-0.3,0.3-0.3h0.1C27.9,46.1,28,46.3,28,46.4z"/>
	<path class="st0" d="M31.3,46.7c-0.4,0.2-0.6,0.4-1,0.6c-0.1,0.1-0.1,0.1-0.2,0.3c-0.1,0.3-0.2,0.6-0.3,0.8c0,0,0,0.1-0.1,0.1
		c-0.1,0.4-0.3,0.7-0.6,1c-0.2,0.2-0.3,0.4-0.5,0.6l-0.1,0.1v0.1c-0.2,0.3-0.5,0.4-0.8,0.2c-0.2-0.1-0.4-0.3-0.5-0.5
		c-0.1-0.3-0.2-0.7-0.1-1.1c0.1-0.3,0.2-0.6,0.3-0.9l0.1-0.1c-0.1-0.1-0.1-0.1-0.2-0.2c0-0.1-0.1-0.1-0.1-0.2s0-0.1,0-0.2
		s0-0.3,0-0.4c0-0.2,0-0.4,0.1-0.5c0.3-0.6,0.6-1.2,1.2-1.7l0,0l0,0c0.2,0.1,0.4,0.1,0.6,0.1c0.1,0,0.3,0,0.4,0.1
		c0.2,0.1,0.4,0.3,0.5,0.5s0.2,0.4,0.2,0.5v0.4c0,0.1,0,0.2,0,0.3c0.2-0.1,0.4-0.2,0.6-0.4c0.1-0.1,0.3-0.2,0.5-0.4
		c0.2-0.1,0.3-0.1,0.5-0.1c0.1,0.2,0,0.3-0.1,0.3C31.7,46.4,31.5,46.5,31.3,46.7z M28.5,48.4c-0.2,0.4-0.3,0.7-0.4,1.2
		c0,0,0,0,0,0.1c0.3-0.3,0.9-1.1,1-1.5c-0.1,0.1-0.2,0.1-0.3,0.1C28.8,48.3,28.6,48.4,28.5,48.4z M28.2,47c0.1-0.2,0.2-0.3,0.4-0.3
		h0.1c0.1,0,0.1,0.1,0.2,0.1c0.2,0.1,0.3,0.3,0.1,0.5l-0.2,0.2l0,0c0.2-0.1,0.4-0.2,0.7-0.4c0.1-0.1,0.2-0.2,0.2-0.3l0.1-0.3
		c0-0.1,0.1-0.3,0.1-0.4c0-0.1,0-0.2-0.1-0.3c-0.2-0.1-0.4-0.3-0.6-0.4c-0.1,0-0.1-0.1-0.2-0.1c-0.4,0.2-0.5,0.5-0.8,1
		C28,46.6,28,46.9,28,47.1C28.1,47.2,28.2,47.1,28.2,47z"/>
	<path class="st0" d="M40.5,45.9c0,0.2,0,0.3-0.2,0.4c-0.2,0.2-0.4,0.3-0.6,0.6c-0.4,0.4-0.7,0.8-1,1.2c-0.2,0.2-0.3,0.5-0.4,0.7
		c0,0.1,0,0.1-0.1,0.2c-0.1,0.1-0.2,0.3-0.3,0.5c-0.1,0.2-0.2,0.4-0.4,0.6c0,0.1-0.1,0.1-0.2,0.2h-0.1c-0.1,0-0.2,0-0.3,0
		c0,0,0,0-0.1,0c-0.2,0-0.6-0.2-0.8-0.3c0-0.1,0.1-0.2,0-0.3s0-0.2,0-0.3c0-0.1,0-0.2,0.1-0.3c0,0,0,0,0-0.1c0-0.3,0.1-0.7,0.3-1
		l0.2-0.5c0.2-0.5,0.4-0.9,0.6-1.4c-0.2,0-0.2,0-0.3,0.2c-0.2,0.2-0.4,0.3-0.5,0.5c-0.1,0.1-0.1,0.2-0.2,0.2
		c-0.2,0.2-0.4,0.5-0.6,0.8c-0.1,0.1-0.1,0.2-0.2,0.3c-0.1,0.2-0.2,0.4-0.4,0.6c-0.1,0-0.1,0.1-0.2,0.1c-0.2,0-0.4-0.1-0.6-0.3v-0.1
		c-0.1-0.3,0-0.6,0.1-0.8l0.1-0.5c0.1-0.2,0.1-0.5,0.2-0.8c0-0.1,0-0.1,0-0.2c-0.1,0-0.2,0.1-0.3,0.1c-0.1,0.1-0.2,0.1-0.2,0.2
		c-0.3,0.4-0.7,0.7-0.9,1.1v0.1c-0.1,0.1-0.1,0.2-0.2,0.3c-0.3,0.3-0.4,0.7-0.6,1.1c0,0.1-0.1,0.2-0.1,0.3l-0.2,0.4
		c0,0.1-0.1,0.2-0.1,0.4c-0.1,0.2-0.1,0.2-0.3,0.4c-0.2,0.1-0.3,0.2-0.5,0.2c-0.2,0.1-0.4-0.1-0.6-0.2c-0.1-0.2-0.2-0.3-0.2-0.5
		v-0.1c-0.1-0.2,0-0.4,0.1-0.5c0-0.1,0.1-0.2,0.1-0.4c0-0.1,0-0.2,0.1-0.3c0.1-0.2,0.1-0.3,0.1-0.5s0.1-0.3,0.1-0.5
		c0-0.1,0-0.2,0.1-0.3c0.1-0.2,0.2-0.4,0.3-0.7c0-0.1,0.1-0.3,0.1-0.4c0-0.1,0.1-0.1,0.1-0.2c0,0,0-0.2,0.1-0.2v-0.1
		c0-0.2,0-0.3,0.1-0.5c0.1-0.3,0.3-0.5,0.4-0.8c0-0.1,0.1-0.1,0.1-0.1c0.1,0,0.2,0,0.3,0.1c0.1,0.1,0.2,0.1,0.3,0.2
		c0.1,0.1,0.2,0.1,0.2,0.3c-0.1,0.2-0.1,0.5-0.2,0.7c0,0,0,0.1-0.1,0.1c0.1,0.1,0.1,0.3,0,0.4c0,0.1-0.1,0.1-0.1,0.2
		c0,0.2-0.1,0.3-0.1,0.4s-0.1,0.2-0.1,0.3v0.1c-0.1,0.1-0.1,0.2-0.1,0.4c-0.1,0.2-0.1,0.4-0.2,0.7l0.3-0.4c0.3-0.4,0.6-0.8,0.9-1.1
		c0,0,0-0.1,0.1-0.1c0.2-0.3,0.5-0.5,0.8-0.7c0.1-0.1,0.2-0.1,0.3-0.2c0.3-0.2,0.3-0.2,0.7-0.2l0.2,0.2c0.1,0.1,0.1,0.2,0.1,0.3
		c0,0.3,0,0.6-0.1,0.9c0,0,0,0.1,0,0.2c0.2-0.2,0.4-0.4,0.6-0.6c0.3-0.3,0.7-0.7,1.1-0.9c0.2-0.2,0.5-0.2,0.7-0.2s0.4,0.1,0.5,0.3
		c0,0.4-0.1,0.8-0.3,1.1c-0.1,0.3-0.2,0.5-0.3,0.8c-0.1,0.3-0.2,0.5-0.3,0.8c0.1,0,0.1-0.1,0.1-0.1c0.2-0.2,0.4-0.5,0.6-0.7
		c0.3-0.3,0.6-0.7,0.9-1c0.1-0.1,0.2-0.2,0.3-0.3c0-0.1,0.1-0.1,0.1-0.2c0.1-0.1,0.2-0.2,0.3-0.2c0.1-0.1,0.2-0.1,0.3-0.1
		s0.1,0,0.2,0H40.5z M32.4,46.6c0-0.1,0.1-0.1,0.1-0.2C32.5,46.5,32.5,46.5,32.4,46.6z M32.6,46.2L32.6,46.2L32.6,46.2L32.6,46.2
		L32.6,46.2z"/>
	<path class="st0" d="M42.7,48.7c-0.3,0.2-0.4,0.5-0.7,0.8c-0.1,0.1-0.1,0.1-0.2,0.2c-0.2,0.2-0.3,0.4-0.5,0.5
		c-0.1,0.1-0.4,0.2-0.5,0.2c-0.3,0.1-0.6,0.1-0.9,0.1c-0.1,0-0.1,0-0.2,0c-0.3-0.1-0.6-0.3-0.8-0.6c-0.2-0.3-0.3-0.6-0.3-1
		c0-0.5,0.1-0.9,0.3-1.4c0.1-0.2,0.2-0.4,0.3-0.6c0.2-0.4,0.4-0.8,0.7-1.2l0.4-0.5c0.1-0.2,0.4-0.4,0.6-0.5c0.1,0,0.2,0,0.3,0.1h0.1
		c0.3,0,0.5,0.1,0.7,0.2c0.2,0.1,0.3,0.3,0.3,0.5c0,0.4,0,0.7-0.2,1.1c-0.1,0.1-0.2,0.3-0.3,0.4c-0.1,0.1-0.2,0.2-0.3,0.3l-0.1,0.1
		c-0.2,0.1-0.3,0.2-0.4,0.3l-0.1,0.1c-0.1,0-0.2,0-0.3,0.1h-0.1c-0.1,0.1-0.2,0.3-0.2,0.4c-0.1,0.2-0.2,0.5-0.2,0.8v0.1
		c0,0.1,0,0.2-0.1,0.3c0,0.1,0,0.2,0.1,0.3c0.1,0.1,0.2,0.1,0.4,0.1c0.1-0.1,0.2-0.1,0.4-0.2c0.3-0.2,0.6-0.4,0.8-0.7
		c0.2-0.2,0.4-0.5,0.6-0.7c0.2-0.3,0.5-0.6,0.6-1c0.2-0.3,0.3-0.6,0.5-0.9c0.1-0.1,0.1-0.2,0.2-0.3c0.1-0.1,0.2,0,0.3,0.1
		c0.1,0.2,0,0.3-0.1,0.5c-0.1,0.3-0.3,0.5-0.4,0.8c-0.1,0.2-0.3,0.5-0.4,0.7l-0.2,0.3C42.8,48.5,42.8,48.6,42.7,48.7z M41.2,46.8
		c0.2-0.2,0.3-0.5,0.4-0.7c0-0.1,0-0.2,0-0.3c0-0.1,0-0.2,0-0.2v-0.1c-0.2,0-0.3,0.2-0.3,0.3c0,0.1-0.1,0.2-0.1,0.2
		c-0.1,0.2-0.1,0.3-0.2,0.5l-0.1,0.3c-0.1,0.1-0.1,0.3-0.1,0.4C41,47.1,41.1,47,41.2,46.8z"/>
</g>
</svg>
