<svg xmlns="http://www.w3.org/2000/svg" viewBox="0 0 94 88.3" width="100%" height="100%"><path d="M55.8 8.7c7.5 4.4 14 10.5 18.7 17.9s7.5 16 7.4 24.8c0 8.8-2.8 17.6-8.6 24.4C70.4 79.1 66.9 82 63 84c-3.9 2-8.3 3.1-12.7 3.5-8.8.8-17.8-1-25.5-5.4-3.8-2.3-7.3-5.1-10-8.6-2.9-3.4-4.9-7.4-6.3-11.6s-1.9-8.8-1.7-13.1c.2-4.4.9-8.9 2.5-13 1.5-4.1 3.8-8.1 6.8-11.3s6.6-5.9 10.5-7.9c7.9-4 16.8-5.4 25.6-5.1 8.8.4 17.5 2.5 25.2 6.8 3.8 2.2 7.4 4.8 10.1 8.3s4.6 7.6 5.4 11.9.4 8.9-.9 13c-1.3 4.2-3.5 8.1-6.4 11.4-5.7 6.7-13.8 11-22.1 13.3-8.4 2.4-17.2 2.6-25.9 1.8-4.3-.4-8.7-1.2-12.8-2.6-4.1-1.3-8.2-3.2-11.7-5.8s-6.6-6-8.7-9.8C2.2 56 1.2 51.5.9 47.2c-.7-8.8 2-17.6 6.5-25.1C12 14.6 18.6 8.3 26.5 4.5c4-1.9 8.3-3 12.7-3.5 4.4-.4 8.9 0 13.2.7 8.7 1.5 17 5.3 23.5 11.4 3.2 3 5.9 6.6 8 10.5 2.1 3.9 3.5 8.2 4.2 12.6 1.5 8.8.1 18-4.2 25.8-4.2 7.9-11.5 14-19.8 17-4.1 1.6-8.5 2.6-12.9 3-4.4.5-8.9.4-13.2-.2-8.8-1.2-17.2-5-23.6-11.3C8 64.4 3.8 56.1 2.4 47.3s.2-18 4.9-25.6c2.4-3.7 5.4-7.1 9-9.6 3.5-2.7 7.6-4.5 11.8-5.9 4.2-1.3 8.6-2 12.9-2.2 2.2-.1 4.3-.2 6.6-.1 2.2.1 4.4.5 6.5 1 8.6 2.5 15.7 8.4 20.7 15.5 5 7.2 7.8 15.7 9 24.4 1.1 8.7.6 17.4-.9 26l-.2.2-.1-.1c1.4-8.6 1.8-17.3.6-25.9-1.3-8.6-4.1-16.9-9.1-24S62.2 8.3 53.9 5.9c-2.1-.6-4.1-.9-6.3-1-2.2-.1-4.3 0-6.4.1-4.3.3-8.6 1.1-12.6 2.4-8.2 2.6-15.5 7.8-20 15.1S2.7 38.6 4.1 47s5.5 16.3 11.6 22.2S29.9 78.8 38.3 80c4.2.6 8.6.7 12.8.2 4.2-.4 8.5-1.4 12.4-2.9 3.9-1.6 7.7-3.7 10.9-6.4 3.2-2.8 5.9-6.1 8-9.7 4.1-7.4 5.5-16.2 4.1-24.6-.7-4.2-2.1-8.3-4-12-2-3.7-4.5-7.2-7.7-10.1-6.1-5.9-14.2-9.7-22.6-11.1-4.2-.8-8.5-1.1-12.8-.8-4.2.4-8.3 1.5-12.3 3.3-7.8 3.6-14.3 9.7-18.8 16.9-4.4 7.1-7.2 15.7-6.6 24.3.3 4.2 1.4 8.5 3.4 12.3 2.1 3.7 4.9 7.1 8.4 9.5 3.4 2.6 7.4 4.4 11.5 5.7 4.1 1.4 8.4 2.2 12.7 2.6 8.6.8 17.4.6 25.8-1.7 4.1-1.1 8.3-2.7 11.9-4.8 3.7-2.2 7.1-5 9.8-8.3 2.8-3.2 4.9-7.1 6.2-11.2s1.6-8.5.8-12.7c-.8-4.2-2.6-8.2-5.3-11.5-2.7-3.3-6.2-5.9-9.9-8-7.6-4.1-16.1-6.2-24.7-6.5-8.7-.3-17.4 1.2-25.1 5.1-3.8 2-7.3 4.5-10.1 7.7s-5 6.9-6.5 10.9-2.2 8.3-2.3 12.5c-.2 4.2.4 8.6 1.7 12.6s3.3 7.9 6 11.1c2.7 3.3 6 6.1 9.6 8.3 7.4 4.3 16.1 6.1 24.6 5.4 4.2-.4 8.5-1.5 12.3-3.3s7.3-4.5 10-7.8c5.6-6.5 8.4-15.2 8.5-23.7.1-8.6-2.6-17.1-7-24.5-4.5-7.3-10.9-13.4-18.2-18.1 0 .1-.1 0 0 0-.1 0-.1 0 0 0z"></path></svg>